<?xml version="1.0" encoding="utf-8"?>
<!-- Generator: Adobe Illustrator 24.0.1, SVG Export Plug-In . SVG Version: 6.00 Build 0)  -->
<svg version="1.1" xmlns="http://www.w3.org/2000/svg" xmlns:xlink="http://www.w3.org/1999/xlink" x="0px" y="0px"
	 viewBox="0 0 668.8 668.8" style="enable-background:new 0 0 668.8 668.8;" xml:space="preserve">
<style type="text/css">
	.st0{fill:#E7507F;}
	.st1{fill:#E63B76;}
	.st2{fill:#EA6B9D;}
	.st3{fill:#FFFFFF;}
</style>
<g id="BG">
	<g id="Layer_2">
	</g>
</g>
<g id="Icon">
	<g>
		<path class="st0" d="M491,576.4c-4.8-10.2-8.4-20.7-11.1-31.3c81.2-49.3,135.5-138.5,135.5-240.5c0-155.2-125.8-281-281-281
			c-155.2,0-281,125.8-281,281c0,155.2,125.8,281,281,281c21.2,0,41.8-2.4,61.7-6.8c36.6,45.6,93.4,69.9,150.9,65.8
			C523.6,627.6,504.1,604.5,491,576.4z"/>
	</g>
	<g>
		<path class="st1" d="M491,576.4c-4.7-10.2-8.4-20.6-11.1-31.1c81.2-49.2,135.5-138.3,135.5-240.2c0-101.1-53.5-189.8-133.8-239.1
			c27.9,43.6,44.1,95.5,44.1,151.1c0,154.9-125.6,280.5-280.5,280.5c-53.8,0-104.1-15.2-146.8-41.4
			c49.9,77.8,137.1,129.4,236.4,129.4c21.1,0,41.6-2.3,61.3-6.7c36.6,45.5,93.4,69.8,150.8,65.8C523.6,627.6,504.1,604.5,491,576.4z
			"/>
	</g>
	<g>
		<g>
			<path class="st2" d="M103.4,332.2c0-137,111.1-248.1,248.1-248.1c80.1,0,151.3,38,196.7,96.9C505.4,106.5,425.1,56.5,333.1,56.5
				C196.1,56.5,85,167.6,85,304.6c0,56.9,19.2,109.4,51.4,151.3C115.4,419.5,103.4,377.2,103.4,332.2z"/>
		</g>
	</g>
	<g>
		<path class="st3" d="M231.5,205h-22.7v-10.7v-10.8h67.7v10.7V205h-22.7v67.7h-11.2h-11.2V205z"/>
		<path class="st3" d="M300.9,183.6H312h11.2v33h27.6v-33H362h11.2v89.2H362h-11.2V238h-27.6v34.7H312h-11.2V183.6z"/>
		<path class="st3" d="M399.5,272.7v-89.2h61.8v10.7V205h-39.5v12.1h39.5v10.7v10.8h-39.5v12.7h39.5V262v10.8H399.5z"/>
		<path class="st3" d="M222.5,404.7c-3.6,4-7.7,6.9-12.4,8.9c-4.7,2-9.9,3-15.6,3c-12.2,0-21.6-4.2-28.3-12.5
			c-6.6-8.3-10-20.2-10-35.5c0-15.1,3.3-26.4,9.8-33.9c6.5-7.5,16.2-11.3,29.3-11.3c5.4,0,10.3,0.7,14.7,2.2
			c4.4,1.5,8.6,3.8,12.5,6.9v24.9c-3.5-3.6-7.4-6.4-11.5-8.2c-4.2-1.8-8.6-2.7-13.4-2.7c-6.1,0-10.8,2.2-14.1,6.5
			c-3.3,4.4-4.9,10.6-4.9,18.8c0,7.5,1.7,13.5,5.1,17.8c3.4,4.3,8,6.5,13.9,6.5c4.9,0,9.5-1.2,13.8-3.7c4.3-2.5,8-6,11.1-10.5V404.7
			z"/>
		<path class="st3" d="M247.7,325.3h11.2H270v33h27.6v-33h11.2H320v89.2h-11.2h-11.2v-34.7H270v34.7h-11.2h-11.2V325.3z"/>
		<path class="st3" d="M367.1,325.3h18h18l26,89.2h-12h-12l-4.7-18.5h-31.3l-4.8,18.5h-11.6h-11.7L367.1,325.3z M374.8,374.2
			l-0.1,0.3H395l-0.1-0.3l-10.1-34.6h0L374.8,374.2z"/>
		<path class="st3" d="M468.8,346.7h-22.7v-10.7v-10.8h67.7V336v10.8h-22.7v67.7h-11.2h-11.2V346.7z"/>
	</g>
</g>
</svg>
