<?xml version="1.0" encoding="utf-8"?>
<!-- Generator: Adobe Illustrator 24.0.1, SVG Export Plug-In . SVG Version: 6.00 Build 0)  -->
<svg version="1.1" xmlns="http://www.w3.org/2000/svg" xmlns:xlink="http://www.w3.org/1999/xlink" x="0px" y="0px"
	 viewBox="0 0 3172.2 3044.4" style="enable-background:new 0 0 3172.2 3044.4;" xml:space="preserve">
<style type="text/css">
	.st0{fill:#F4F7FA;}
	.st1{clip-path:url(#SVGID_2_);}
	.st2{opacity:0.7;}
	.st3{fill:#FFFFFF;}
	.st4{opacity:0.7;clip-path:url(#SVGID_5_);}
	.st5{fill:#FCFDFE;}
	.st6{fill:url(#SVGID_6_);}
	.st7{fill:url(#SVGID_7_);}
	.st8{fill:url(#SVGID_8_);}
	.st9{fill:url(#SVGID_9_);}
	.st10{opacity:0.48;fill:#FFFFFF;}
	.st11{fill:url(#SVGID_10_);}
	.st12{opacity:0.3;fill:url(#SVGID_11_);}
	.st13{fill:#D8DEE8;}
	.st14{fill:url(#SVGID_12_);}
	.st15{fill:url(#SVGID_13_);}
	.st16{fill:url(#SVGID_14_);}
	.st17{fill:url(#SVGID_15_);}
	.st18{clip-path:url(#SVGID_17_);}
	.st19{fill:url(#SVGID_18_);}
	.st20{fill:url(#SVGID_19_);}
	.st21{fill:url(#SVGID_20_);}
	.st22{fill:url(#SVGID_21_);}
	.st23{fill:url(#SVGID_22_);}
	.st24{fill:url(#SVGID_23_);}
	.st25{fill:url(#SVGID_24_);}
	.st26{fill:url(#SVGID_25_);}
	.st27{opacity:0.3;fill:url(#SVGID_26_);}
	.st28{fill:url(#SVGID_27_);}
	.st29{opacity:0.3;}
	.st30{fill:url(#SVGID_28_);}
	.st31{fill:url(#SVGID_29_);}
	.st32{fill:url(#SVGID_30_);}
	.st33{fill:url(#SVGID_31_);}
	.st34{fill:url(#SVGID_32_);}
	.st35{opacity:0.3;fill:url(#SVGID_33_);}
	.st36{fill:url(#SVGID_34_);}
	.st37{clip-path:url(#SVGID_36_);}
	.st38{fill:url(#SVGID_37_);}
	.st39{fill:url(#SVGID_38_);}
	.st40{fill:url(#SVGID_39_);}
	.st41{fill:url(#SVGID_40_);}
	.st42{fill:url(#SVGID_41_);}
	.st43{fill:url(#SVGID_42_);}
	.st44{fill:url(#SVGID_43_);}
	.st45{fill:url(#SVGID_44_);}
	.st46{opacity:0.3;fill:url(#SVGID_45_);}
	.st47{fill:url(#SVGID_46_);}
	.st48{fill:url(#SVGID_47_);}
	.st49{clip-path:url(#SVGID_49_);}
	.st50{fill:url(#SVGID_50_);}
	.st51{fill:url(#SVGID_51_);}
	.st52{fill:url(#SVGID_52_);}
	.st53{fill:url(#SVGID_53_);}
	.st54{fill:url(#SVGID_54_);}
	.st55{fill:url(#SVGID_55_);}
	.st56{opacity:0.3;fill:url(#SVGID_56_);}
	.st57{fill:url(#SVGID_57_);}
	.st58{fill:url(#SVGID_58_);}
	.st59{opacity:0.3;fill:url(#SVGID_59_);}
	.st60{opacity:0.3;fill:url(#SVGID_60_);}
	.st61{fill:url(#SVGID_61_);}
	.st62{fill:url(#SVGID_62_);}
	.st63{fill:url(#SVGID_63_);}
	.st64{fill:url(#SVGID_64_);}
	.st65{fill:url(#SVGID_65_);}
	.st66{fill:url(#SVGID_66_);}
	.st67{fill:url(#SVGID_67_);}
	.st68{fill:url(#SVGID_68_);}
	.st69{opacity:0.75;}
	.st70{fill:url(#SVGID_69_);}
</style>
<g id="Background">
</g>
<g id="Illustration">
	<g>
		<path class="st0" d="M2738.7,2277.8C2161,3016.6,808.3,3028.4,433.9,2618.1C284.4,2454.3,245,2173,187,1759.8
			C159,1561,155,1400.6,152.7,1290.6c-8.2-374.2-12.2-561.3,48-688.5C373.2,237.8,972.5,96,1359.9,89.4c27-0.5,54.3-0.3,81.8,0.5
			c453.6,13.5,965.5,202.3,1281.1,605.8c32.6,41.6,63.1,85.6,91.2,131.8C3102.3,1301.4,3053.8,1874.7,2738.7,2277.8z"/>
		<g>
			<g>
				<defs>
					<path id="SVGID_1_" d="M1633.1,1691.2c79.1-55.9,93.2-202.2,73.9-300.4c-22.6-114.6-81.8-117.7-92.5-208.2
						c-19.8-168.5,177.3-227.1,170.8-398.7c-5.3-140.2-139.1-154.3-137.9-309.9c0.8-112.3,70.9-158.9,39.4-256.9
						c-2.7-8.4-33-98.3-109.8-119.3c-77.5-21.2-157,40.2-196.3,89.6c-72.7,91.4-18.9,155.6-65.3,295.5
						c-63.2,190.5-200.3,184.3-217.8,334.2c-14.5,123.8,75.7,156.6,56.9,293.5c-17.4,127.2-101.5,145.1-105,231.7
						C1041.4,1541.9,1471.8,1805.1,1633.1,1691.2z"/>
				</defs>
				<use xlink:href="#SVGID_1_"  style="overflow:visible;fill:#D8DEE8;"/>
				<clipPath id="SVGID_2_">
					<use xlink:href="#SVGID_1_"  style="overflow:visible;"/>
				</clipPath>
				<g class="st1">
					<g class="st2">
						<path class="st3" d="M1519.1,1784.9c-0.5,0-0.9-0.1-1.4-0.4c-74.2-43.6-136.1-100.8-183.9-170.1
							c-45.3-65.7-92.2-133.6-88.4-218.6c2.9-64.6,33-99.2,71-142.9c36.3-41.7,81.5-93.6,113.1-189.6c18-54.8,40.5-123.1,23.2-204.8
							c-10-47.4-28.6-74.3-45-97.9c-17.1-24.8-32-46.2-29.1-83c4.5-58.9,36-96.4,72.4-140c22.1-26.4,44.9-53.7,64.9-89.1
							c56.3-99.6,57.8-233.8,4.4-398.7c-0.5-1.4,0.3-3,1.8-3.4c1.4-0.5,3,0.3,3.4,1.8c53.8,166.4,52.2,302-4.9,403.1
							c-20.3,35.9-43.2,63.4-65.5,89.9c-35.8,42.8-66.7,79.8-71.1,136.9c-2.7,34.8,10.9,54.5,28.2,79.4
							c16.7,24.1,35.6,51.4,45.8,99.9c17.6,83.1-5.1,152.2-23.3,207.6c-32,97.1-77.5,149.5-114.2,191.5
							c-37.4,42.9-66.9,76.8-69.7,139.6c-3.7,83.1,42.6,150.3,87.4,215.2c47.3,68.6,108.6,125.3,182.2,168.5c1.3,0.8,1.7,2.4,1,3.7
							C1520.9,1784.4,1520,1784.9,1519.1,1784.9z"/>
					</g>
					<g class="st2">
						<path class="st3" d="M1460.9,900c-0.7,0-1.5-0.3-2-0.9c-1-1.1-0.9-2.8,0.2-3.8c125.8-112.4,184.9-216.7,212.4-284.4
							c29.7-73.3,29.7-120.7,29.7-121.1c0-1.5,1.2-2.7,2.7-2.7c0,0,0,0,0,0c1.5,0,2.7,1.2,2.7,2.7c0,2,0.1,48.7-29.9,122.9
							c-27.6,68.3-87.2,173.5-213.9,286.8C1462.2,899.8,1461.6,900,1460.9,900z"/>
					</g>
					<g class="st2">
						<path class="st3" d="M1400.4,1143.1c-0.6,0-1.2-0.2-1.7-0.6c-70.2-57.4-123.6-122.5-158.7-193.4
							c-28.1-56.8-44.6-117.5-49-180.4c-7.5-107.1,23.1-184.5,23.4-185.3c0.6-1.4,2.1-2.1,3.5-1.5c1.4,0.6,2.1,2.1,1.5,3.5
							c-0.3,0.8-30.5,77.2-23,183.1c6.9,97.7,48.2,241.1,205.7,369.8c1.2,1,1.3,2.7,0.4,3.8
							C1402,1142.8,1401.2,1143.1,1400.4,1143.1z"/>
					</g>
					<g class="st2">
						<path class="st3" d="M1285.5,1544.7c-1.2,0-2.3-0.8-2.6-2c-0.4-1.4,0.4-3,1.8-3.4c185.5-54.4,282.2-153.3,330.7-226.7
							c52.5-79.4,61.2-146.6,61.3-147.3c0.2-1.5,1.6-2.5,3-2.4c1.5,0.2,2.5,1.5,2.4,3c-0.1,0.7-9,69.2-62.2,149.6
							c-49,74.1-146.7,174-333.7,228.9C1286,1544.6,1285.7,1544.7,1285.5,1544.7z"/>
					</g>
					<g class="st2">
						<path class="st3" d="M1524.5,433.7c-0.7,0-1.5-0.3-2-0.9c-106.1-115.1-119-235.1-111.2-315.6c8.5-87.1,42.6-148,42.9-148.6
							c0.7-1.3,2.4-1.8,3.7-1c1.3,0.7,1.8,2.4,1,3.7c-0.3,0.6-33.9,60.6-42.3,146.6c-7.7,79.3,5.1,197.6,109.8,311.1
							c1,1.1,0.9,2.8-0.2,3.8C1525.8,433.4,1525.1,433.7,1524.5,433.7z"/>
					</g>
				</g>
			</g>
		</g>
		<g>
			<g>
				<g>
					<defs>
						<path id="SVGID_3_" d="M1325.4,2193.2c20.1,2.8,66.3-8.7,77.1-16.6c71.9-53,213.1-143.5,232.8-235.9
							c3.4-15.8-62-49.3-67.8-66.3c-36.5-31.5-51.1-40.2-71.1-87.2c-59-138.8,206.3-295.6-12.9-437
							c-160.6-103.6-325.7-84-231.5-351.6c94.2-267.6,15.2-824.5-325.5-713.8C731,348.3,834.8,626.6,702.4,774.3
							c-125.7,140.3-93.8,293.2,52,438.5c145.8,145.3,32.8,194.8-60.1,335.5c-111.6,169,164.9,280.7,297,321.4
							C1097.7,1902.5,1346.3,2057.7,1325.4,2193.2z"/>
					</defs>
					<linearGradient id="SVGID_4_" gradientUnits="userSpaceOnUse" x1="1011.4908" y1="667.6728" x2="1127.4117" y2="1590.5793">
						<stop  offset="3.597120e-03" style="stop-color:#E38DDD"/>
						<stop  offset="1" style="stop-color:#9571F6"/>
					</linearGradient>
					<use xlink:href="#SVGID_3_"  style="overflow:visible;fill:url(#SVGID_4_);"/>
					<clipPath id="SVGID_5_">
						<use xlink:href="#SVGID_3_"  style="overflow:visible;"/>
					</clipPath>
					<g class="st4">
						<g>
							<path class="st5" d="M1514.3,2065.7l2.9-3.2c-498.3-439.6-681.8-1127.3-490.9-1839.4l-4.2-1.1
								c-90.5,337.5-96.7,682.7-18,998.2C1086.8,1551.9,1263.2,1844.3,1514.3,2065.7z"/>
							<path class="st5" d="M640,1613.2c181.6-8.6,460.4,66.7,621.6,168.1l2.3-3.7c-161.8-101.7-441.8-177.4-624.1-168.7L640,1613.2
								z"/>
							<path class="st5" d="M1417.5,1978.3l3.6-2.3c-53.2-83.5-62.1-190.6-26.5-318.5c26.1-93.7,75-196.2,145.5-304.6l-3.6-2.4
								c-70.7,108.7-119.8,211.6-146,305.8C1354.5,1785.5,1363.6,1893.8,1417.5,1978.3z"/>
							<path class="st5" d="M994.6,1175l3.8-2.1c-92.1-162.5-269-248-401.1-291.1l-1.3,4.1C727.4,928.7,903.2,1013.7,994.6,1175z"/>
							<path class="st5" d="M948.6,749.8l4.2,0.8c41.2-206.4,206.8-352.5,301.9-421.3l-2.5-3.5C1156.7,395,990.1,542,948.6,749.8z"
								/>
						</g>
					</g>
				</g>
			</g>
		</g>
		<g>
			<g>
				<linearGradient id="SVGID_6_" gradientUnits="userSpaceOnUse" x1="1672.9402" y1="2765.2932" x2="1507.5326" y2="2834.7644">
					<stop  offset="0" style="stop-color:#40447E"/>
					<stop  offset="0.9964" style="stop-color:#3C3B6B"/>
				</linearGradient>
				<path class="st6" d="M3033,2674.8l-2354.6-20.5v60.7c0,16.5,10.3,30.5,24.2,33l665.8,119.5c7.9,1.4,15.9,1.8,23.9,1.1
					l1615.2-136.2c14.4-1.2,25.6-15.3,25.6-32.2V2674.8z"/>
				<g>
					<linearGradient id="SVGID_7_" gradientUnits="userSpaceOnUse" x1="1452.0707" y1="2036.2865" x2="1272.5608" y2="2111.6807">
						<stop  offset="0" style="stop-color:#40447E"/>
						<stop  offset="0.9964" style="stop-color:#3C3B6B"/>
					</linearGradient>
					<path class="st7" d="M2275,2576.4l-1570.7,111c-28.1,2-51-19.1-51-47.1V1517.4c0-28,22.9-50.7,51-50.7H2275
						c23.2,0,41.9,20.5,41.9,45.9v1015.1C2316.9,2552.9,2298.2,2574.8,2275,2576.4z"/>
					<linearGradient id="SVGID_8_" gradientUnits="userSpaceOnUse" x1="678.3539" y1="2077.0979" x2="2341.9209" y2="2077.0979">
						<stop  offset="0" style="stop-color:#40447E"/>
						<stop  offset="0.9964" style="stop-color:#3C3B6B"/>
					</linearGradient>
					<path class="st8" d="M2300,2576.4l-1570.7,111c-28.1,2-51-19.1-51-47.1V1517.4c0-28,22.9-50.7,51-50.7H2300
						c23.2,0,41.9,20.5,41.9,45.9v1015.1C2341.9,2552.9,2323.2,2574.8,2300,2576.4z"/>
					<linearGradient id="SVGID_9_" gradientUnits="userSpaceOnUse" x1="1729.2689" y1="1673.8859" x2="454.3047" y2="3758.1763">
						<stop  offset="0" style="stop-color:#FFC444"/>
						<stop  offset="0.9964" style="stop-color:#F36F56"/>
					</linearGradient>
					<path class="st9" d="M2251.1,2504.9l-1463,96.4c-22.9,1.5-41.5-15.8-41.5-38.7v-983.1c0-22.9,18.6-41.5,41.5-41.6l1463-6.1
						c19.1-0.1,34.6,16.8,34.6,37.6v895.4C2285.7,2485.7,2270.2,2503.6,2251.1,2504.9z"/>
					<path class="st3" d="M1570.2,1497.4c0,10.4-8.1,18.9-18.1,18.9c-10,0-18.1-8.4-18.1-18.9c0-10.5,8.1-18.9,18.1-18.9
						C1562.1,1478.5,1570.2,1486.9,1570.2,1497.4z"/>
					<path class="st10" d="M1921.6,2268.5c-121.1-65.2-216.3,17.4-308.2-64.1c-55.7-49.4-28.4-86.2-96.9-160
						c-75.9-81.7-125.3-54.3-201.6-127.8c-96.5-93-48.2-165.4-131.3-232.2c-100.8-81-209.5-6-305.5-83.7
						c-41.4-33.5-64.1-82.2-76-134h-93.9c-16.5,0-29.8,13.3-29.8,29.8v1164c0,16.5,13.4,28.8,29.8,27.7L2309,2574.4
						c7.9-0.6,14.8-5.1,19.3-11.8c-117.2-4.3-189.2-43.6-235.2-84.2C2003.1,2399,2018.7,2320.7,1921.6,2268.5z"/>
				</g>
				<linearGradient id="SVGID_10_" gradientUnits="userSpaceOnUse" x1="678.3539" y1="2692.2786" x2="3032.9822" y2="2692.2786">
					<stop  offset="0" style="stop-color:#40447E"/>
					<stop  offset="0.9964" style="stop-color:#3C3B6B"/>
				</linearGradient>
				<path class="st11" d="M2260.8,2571.4L678.4,2688.2l690,123.8c7.9,1.4,15.9,1.8,23.9,1.1L3033,2674.8l-747-102.6
					C2277.7,2571,2269.2,2570.8,2260.8,2571.4z"/>
				<linearGradient id="SVGID_11_" gradientUnits="userSpaceOnUse" x1="909.2647" y1="2672.9858" x2="2634.4863" y2="2672.9858">
					<stop  offset="0" style="stop-color:#40447E"/>
					<stop  offset="0.9964" style="stop-color:#3C3B6B"/>
				</linearGradient>
				<polygon class="st12" points="909.3,2691.2 2226.7,2592.4 2634.5,2648 1328.4,2753.5 				"/>
			</g>
		</g>
		<g>
			<g>
				<path class="st3" d="M2528.5,1152.5L1298.3,1122c-34.8-0.9-63.1,28.3-63.1,65v249.4c0,36.8,28.3,66.6,63.1,66.6l1230.1-0.4
					c29.2,0,52.8-27.2,52.8-60.7v-227.3C2581.3,1181,2557.7,1153.3,2528.5,1152.5z"/>
				<polygon class="st13" points="2178.7,1259.2 1355,1245.4 1355,1204.7 2178.7,1220.8 				"/>
				<polygon class="st13" points="2178.7,1323.3 1355,1313.2 1355,1272.5 2178.7,1284.8 				"/>
				<polygon class="st13" points="1817,1384.6 1355,1381 1355,1340.3 1817,1345.1 				"/>
				<linearGradient id="SVGID_12_" gradientUnits="userSpaceOnUse" x1="2269.0227" y1="1320.9976" x2="2724.4441" y2="1320.9976">
					<stop  offset="0" style="stop-color:#FF9085"/>
					<stop  offset="1" style="stop-color:#FB6FBB"/>
				</linearGradient>
				<path class="st14" d="M2724.4,1323.9c0,141.9-99.4,257.6-224,258.4c-126.9,0.8-231.4-117.5-231.4-264.2s104.6-262.3,231.4-258.3
					C2625.1,1063.7,2724.4,1181.9,2724.4,1323.9z"/>
				<path class="st3" d="M2699.5,1323.6c0,126.2-88.4,228.8-199.1,229.2c-112.5,0.4-205-104.5-205-234.4
					c0-129.9,92.5-232.5,205-229.2C2611.1,1092.5,2699.5,1197.4,2699.5,1323.6z"/>
			</g>
			<g>
				<linearGradient id="SVGID_13_" gradientUnits="userSpaceOnUse" x1="1205.7892" y1="2300.387" x2="2551.8049" y2="2300.387">
					<stop  offset="0" style="stop-color:#AA80F9"/>
					<stop  offset="0.9964" style="stop-color:#6165D7"/>
				</linearGradient>
				<path class="st15" d="M2499,2083.9l-1230.1,51.8c-34.8,1.5-63.1,32.5-63.1,69.3v249.4c0,36.8,28.3,64.7,63.1,62.4L2499,2434
					c29.2-2,52.8-30.7,52.8-64.3v-227.3C2551.8,2108.9,2528.2,2082.7,2499,2083.9z"/>
				<polygon class="st3" points="2149.2,2214 1325.5,2255.3 1325.5,2214.7 2149.2,2175.6 				"/>
				<polygon class="st3" points="2149.2,2278.1 1325.5,2323.1 1325.5,2282.5 2149.2,2239.6 				"/>
				<polygon class="st3" points="1787.5,2363.6 1325.5,2390.9 1325.5,2350.2 1787.5,2324.2 				"/>
				<linearGradient id="SVGID_14_" gradientUnits="userSpaceOnUse" x1="2239.5361" y1="2254.52" x2="2694.9575" y2="2254.52">
					<stop  offset="0" style="stop-color:#AA80F9"/>
					<stop  offset="0.9964" style="stop-color:#6165D7"/>
				</linearGradient>
				<path class="st16" d="M2695,2242.2c0,141.9-99.4,264.3-224,273.4c-126.9,9.3-231.4-102-231.4-248.7
					c0-146.7,104.6-269.3,231.4-273.8C2595.6,1988.7,2695,2100.2,2695,2242.2z"/>
				<path class="st3" d="M2670.1,2243.5c0,126.2-88.4,234.7-199.1,242.6c-112.5,8-205-90.8-205-220.6c0-129.9,92.5-238.6,205-242.9
					C2581.6,2018.4,2670.1,2117.3,2670.1,2243.5z"/>
			</g>
			<g>
				<path class="st3" d="M668,1634.3l1330.2-11.5c31.5-0.3,56.9,27.7,56.9,62.5v235.9c0,34.8-25.4,63.9-56.9,64.9L668,2031.2
					c-37.7,1.3-68.4-28.8-68.4-67.1v-259.8C599.5,1665.9,630.2,1634.6,668,1634.3z"/>
				<polygon class="st13" points="1094.6,1754.7 1946.3,1740.5 1946.3,1701.4 1094.6,1713.4 				"/>
				<polygon class="st13" points="1094.6,1823.7 1946.3,1805.6 1946.3,1766.5 1094.6,1782.3 				"/>
				<polygon class="st13" points="1492.5,1882.4 1946.3,1870.8 1946.3,1831.7 1492.5,1842.1 				"/>
				
					<linearGradient id="SVGID_15_" gradientUnits="userSpaceOnUse" x1="-1685.8153" y1="1825.0936" x2="-1105.4094" y2="1825.0936" gradientTransform="matrix(-1 0 0 1 -697.1331 0)">
					<stop  offset="0" style="stop-color:#AA80F9"/>
					<stop  offset="0.9964" style="stop-color:#6165D7"/>
				</linearGradient>
				<path class="st17" d="M408.3,1831.1c0,165.9,133.7,295.1,295.6,288.7c158.6-6.3,284.9-140.9,284.9-300.8s-126.2-289.3-284.9-289
					C542,1530.4,408.3,1665.2,408.3,1831.1z"/>
				<path class="st3" d="M442.2,1830.4c0,146.9,118.2,261.6,261.7,256.2c140.9-5.3,253.3-124.7,253.3-266.9s-112.4-257-253.3-256.4
					C560.4,1563.9,442.2,1683.5,442.2,1830.4z"/>
			</g>
			<g>
				<defs>
					<path id="SVGID_16_" d="M1113.3,1082.4l-33.9-604.5L148,703.3v929.6l300.4,254.8c26.2,118.4,131.4,203.6,255.4,198.9
						c122.1-4.6,222.7-94.9,247.4-211.2l178.6-4.3L1113.3,1082.4z"/>
				</defs>
				<clipPath id="SVGID_17_">
					<use xlink:href="#SVGID_16_"  style="overflow:visible;"/>
				</clipPath>
				<g class="st18">
					<linearGradient id="SVGID_18_" gradientUnits="userSpaceOnUse" x1="620.7782" y1="683.5474" x2="626.1923" y2="1181.6125">
						<stop  offset="0" style="stop-color:#444B8C"/>
						<stop  offset="0.9964" style="stop-color:#26264F"/>
					</linearGradient>
					<path class="st19" d="M682,1489.1c-54,33.3-119.8,24.4-249,5.4c-124.8-18.4-187.3-27.5-220.1-66.9c-59.3-71-42.5-197.8,5.3-281
						c69.3-120.8,175.4-100,223-212.4c42.7-101.1-27.5-154.7,16.2-227.4c62.9-104.4,282.5-117.7,435.8-40.6
						c73.9,37.1,194.4,126.4,181.4,213.8c-11.7,78.4-127.7,134.7-251.7,194.9c-102.5,49.7-163.4,60.4-189.5,121.8
						c-24,56.3-6.5,126.7,10.8,129.9c12.1,2.3,18-29.4,48.7-40.6c26.6-9.7,64.1-1.4,78.5,18.9C798.7,1343.8,754.9,1444.2,682,1489.1
						z"/>
					
						<linearGradient id="SVGID_19_" gradientUnits="userSpaceOnUse" x1="-1056.8156" y1="1476.9832" x2="-1132.0515" y2="1749.9321" gradientTransform="matrix(-1 0 0 1 -115.3658 0)">
						<stop  offset="0" style="stop-color:#FF9085"/>
						<stop  offset="1" style="stop-color:#FB6FBB"/>
					</linearGradient>
					<path class="st20" d="M933.1,1138.1c0,0,180.9,78.9,150.5,280.8c-30.5,202.7-303.4,140.1-303.4,140.1L764,1417.2
						c0,0,208.7,10,182.7-121.3c-28.4-143.4-52.7-145.5-52.7-145.5L933.1,1138.1z"/>
					
						<linearGradient id="SVGID_20_" gradientUnits="userSpaceOnUse" x1="-848.9136" y1="2674.2478" x2="-831.5076" y2="2987.5596" gradientTransform="matrix(-1 0 0 1 -115.3658 0)">
						<stop  offset="0" style="stop-color:#444B8C"/>
						<stop  offset="0.9964" style="stop-color:#26264F"/>
					</linearGradient>
					<path class="st21" d="M687.5,2785.5c0,0-2.3,19.1-0.8,25.3c1.6,6.2,55.6,6.3,73.8,2.5c18.2-3.7-10.9-20.3-22.5-22.9
						C726.4,2787.9,687.5,2785.5,687.5,2785.5z"/>
					
						<linearGradient id="SVGID_21_" gradientUnits="userSpaceOnUse" x1="-814.3148" y1="2832.3081" x2="-824.5317" y2="2364.8933" gradientTransform="matrix(-1 0 0 1 -115.3658 0)">
						<stop  offset="0" style="stop-color:#FFC444"/>
						<stop  offset="0.9964" style="stop-color:#F36F56"/>
					</linearGradient>
					<path class="st22" d="M714.7,2751.8l-5.7,38.4c0,0-14.5,7.8-21.5,1.8l-0.8-39.7L714.7,2751.8z"/>
					
						<linearGradient id="SVGID_22_" gradientUnits="userSpaceOnUse" x1="-505.4146" y1="2662.1978" x2="-485.3288" y2="3023.7456" gradientTransform="matrix(-1 0 0 1 -115.3658 0)">
						<stop  offset="0" style="stop-color:#444B8C"/>
						<stop  offset="0.9964" style="stop-color:#26264F"/>
					</linearGradient>
					<path class="st23" d="M404.3,2774.8c0,0,11.9,7.9,8.7,18.7c-3.2,10.8-31,55.5-50.9,69.2c-19.9,13.7-13.7-11.9-7.9-28
						c5.8-16.1,20.6-51.7,26.4-57.9C386.4,2770.5,404.3,2774.8,404.3,2774.8z"/>
					
						<linearGradient id="SVGID_23_" gradientUnits="userSpaceOnUse" x1="-510.4804" y1="2853.8079" x2="-521.2633" y2="2360.5051" gradientTransform="matrix(-1 0 0 1 -115.3658 0)">
						<stop  offset="0" style="stop-color:#FFC444"/>
						<stop  offset="0.9964" style="stop-color:#F36F56"/>
					</linearGradient>
					<path class="st24" d="M425.7,2730.7c-5.7,16.4-11.3,30-15.6,40.1c-9.6,22.2-14.8,30.7-20.8,38.2c-5.2,6.5-17.5,20.5-20.8,18.6
						c-3.4-1.9,5.6-18.5,23-66.2c2.5-6.9,10.4-28.9,10.4-28.9l0,0L425.7,2730.7z"/>
					
						<linearGradient id="SVGID_24_" gradientUnits="userSpaceOnUse" x1="-959.7543" y1="2530.1838" x2="-768.7211" y2="2273.7971" gradientTransform="matrix(-1 0 0 1 -115.3658 0)">
						<stop  offset="0" style="stop-color:#444B8C"/>
						<stop  offset="0.9964" style="stop-color:#26264F"/>
					</linearGradient>
					<path class="st25" d="M827,2048.3c3.9,39,7.6,99.7,2,173.7c-7.3,96.5-26.1,158.5-49.7,262.7c-14.5,63.8-34.1,157.9-51.8,275.3
						c-4.1,2.7-16.3,10-31.9,8.9c-8.8-0.6-15.4-3.6-19.2-5.9c-47.1-142.1-33.1-233.5-10.4-291.2c9.7-24.5,21.4-44.1,27.6-81.3
						c8.3-49.1-2-75.7-16.5-187.8c-10.4-80-8.6-92.5-1.7-104.8C702.9,2048.9,786.8,2046.9,827,2048.3z"/>
					
						<linearGradient id="SVGID_25_" gradientUnits="userSpaceOnUse" x1="-824.3928" y1="2581.6299" x2="-364.0056" y2="2152.2803" gradientTransform="matrix(-1 0 0 1 -115.3658 0)">
						<stop  offset="0" style="stop-color:#444B8C"/>
						<stop  offset="0.9964" style="stop-color:#26264F"/>
					</linearGradient>
					<path class="st26" d="M666.9,2070.9c-28.8,152-57.2,232.8-78.8,278.9c-5.3,11.4-23.1,48.2-40,100.6
						c-15,46.5-21.2,80.4-24.4,95.4c-10.1,47.3-35.1,117.3-102.9,212.1c-0.8,0.6-12.5,8-23.6,3.1c-5.6-2.5-8.4-7-9.6-9.1
						c8.9-86.7,19.2-159.7,28-216.1c1.9-11.8,10.1-63.4,22.9-131.7c5-26.7,12.4-65.7,21.1-105.9c10.9-49.9,27.7-117.8,53.4-199.2
						C564.7,2089.5,616,2080.2,666.9,2070.9z"/>
					
						<linearGradient id="SVGID_26_" gradientUnits="userSpaceOnUse" x1="-935.3328" y1="2548.3831" x2="-744.3035" y2="2292.0015" gradientTransform="matrix(-1 0 0 1 -115.3658 0)">
						<stop  offset="0" style="stop-color:#444B8C"/>
						<stop  offset="0.9964" style="stop-color:#26264F"/>
					</linearGradient>
					<path class="st27" d="M665.9,2471.9c9.7-24.5,21.4-44.1,27.6-81.3c8.3-49.1-2-75.7-16.5-187.8c-10.4-80-8.6-92.5-1.7-104.8
						c15-26.7,46.8-39.5,79-45.4c-0.4,1.7-0.9,3.4-1.2,5c-16.9,79.4,47.4,124.6,18.5,212.2c-14.3,43.3-37.2,54.3-42.6,104.1
						c-5,46.7,13.1,55.3,9.3,97.7c-5.8,63.4-49.9,81.6-61.4,130.8c-7.5,32-1.2,77.6,53.3,139.9c-0.9,5.8-1.8,11.6-2.7,17.5
						c-4.1,2.7-16.3,10-31.9,8.9c-8.8-0.6-15.4-3.6-19.2-5.9C629.2,2620.9,643.2,2529.6,665.9,2471.9z"/>
					
						<linearGradient id="SVGID_27_" gradientUnits="userSpaceOnUse" x1="-899.6977" y1="1682.5277" x2="-465.0941" y2="2252.9458" gradientTransform="matrix(-1 0 0 1 -115.3658 0)">
						<stop  offset="0" style="stop-color:#FF9085"/>
						<stop  offset="1" style="stop-color:#FB6FBB"/>
					</linearGradient>
					<path class="st28" d="M885.6,1463.9c-4.2-6.7-17.5-25.3-74.4-39.2c-28.6-7-81.9-19.2-150.9-4.7
						c-95.8,20.1-156.1,78.4-178.9,103c18.7,12.2,70,49.1,95.3,119.2c7.9,21.8,31,96.1-2.1,166.6c-19.2,40.7-53.2,71.9-79.1,95.6
						c-39,35.7-59.3,41.6-72.5,73.2c-14.4,34.4,0.1,50.5-17.7,74.4c-19.2,25.7-41.8,14.9-74.5,41.4c-33.7,27.3-21.7,48.3-52.4,78.4
						c-44.9,43.9-104.7,32.8-107.5,51.9c-2.4,16.4,40.2,36.6,76.2,43.8c70.9,14.3,132.2-18.2,150.3-28.1
						c50-27.4,41.4-43.2,79.4-63.9c63.2-34.5,106.1-0.9,247.3-3.3c75.5-1.3,113.3-2.5,134-29.3c18.8-24.4,8.9-49.9-2.4-161.3
						c0,0,0,0,0,0c-3.6-37.2-11.3-115.2-11.3-159.8c0-26.3,8.9-69.5,26.6-155.8c1-5.1,10.6-51.6,18.4-113.6
						C896.4,1496.7,895.4,1479.5,885.6,1463.9z"/>
					<g class="st29">
						
							<linearGradient id="SVGID_28_" gradientUnits="userSpaceOnUse" x1="-646.546" y1="1410.2524" x2="-533.0912" y2="2104.0745" gradientTransform="matrix(-1 0 0 1 -115.3658 0)">
							<stop  offset="0" style="stop-color:#FF9085"/>
							<stop  offset="1" style="stop-color:#FB6FBB"/>
						</linearGradient>
						<path class="st30" d="M278.4,2171.7c30.7-30.1,18.7-51,52.4-78.4c32.7-26.6,55.3-15.7,74.5-41.4c17.8-23.9,3.4-40,17.7-74.4
							c13.2-31.6,33.5-37.5,72.5-73.2c25.9-23.7,59.9-54.9,79.1-95.6c33.1-70.5,10-144.8,2.1-166.6
							c-25.3-70.1-76.6-107.1-95.3-119.2c1.8-1.9,3.9-4.2,6.2-6.5c122.2,16.7,192.5,87,201.2,107.8c20,48-11.7,66.1-12.5,205.2
							c-0.4,66.5,6.7,92.6-14.6,121c-24.4,32.5-52.6,23.5-88.2,66.4c-27.4,33.1-23,53.3-48.7,67.8c-27.7,15.6-45.4-0.7-76.8,7.1
							c-52.8,13.2-64.1,74.6-99.3,109.4c-26.7,26.5-76.2,46.5-174.9,31.9c-2.3-3.2-3.4-6.3-3-9.4
							C173.7,2204.6,233.5,2215.6,278.4,2171.7z"/>
					</g>
					<linearGradient id="SVGID_29_" gradientUnits="userSpaceOnUse" x1="732.6805" y1="1297.2683" x2="703.6152" y2="1455.8051">
						<stop  offset="0" style="stop-color:#311944"/>
						<stop  offset="1" style="stop-color:#A03976"/>
					</linearGradient>
					<path class="st31" d="M699.3,1344.9c0,0-6,49.1-23.9,60.2c-17.9,11.2-47,25.8-50.2,29.8c-3.2,4,110.8,16.8,166.6-11.7l0,0
						c-18.4-4-23.4-5.5-23.4-5.5c-5-1.5-14.3-4.2-23.7-9.7c-6.4-3.7-16.7-11-26.1-24.8l0.2-27.2L699.3,1344.9z"/>
					<linearGradient id="SVGID_30_" gradientUnits="userSpaceOnUse" x1="689.8969" y1="1236.7932" x2="704.9318" y2="1320.8116">
						<stop  offset="0" style="stop-color:#311944"/>
						<stop  offset="1" style="stop-color:#A03976"/>
					</linearGradient>
					<path class="st32" d="M696.6,1362.2c0,0,11.6,16.3,29.8,9.7c16.3-5.9,6.6-48.8-6.4-53.8c-4.3-1.7-12.2-1-17.5,2.3
						c-3.7,2.3-13.7,14.8-8,28.9c-4.1-1.3-7.8-0.2-8.7,1.9c-1.2,2.6,2.3,6.2,3.1,7.1C691.8,1361.1,695.1,1361.9,696.6,1362.2z"/>
					<linearGradient id="SVGID_31_" gradientUnits="userSpaceOnUse" x1="896.3419" y1="1112.4602" x2="942.7824" y2="1112.4602">
						<stop  offset="0" style="stop-color:#311944"/>
						<stop  offset="1" style="stop-color:#A03976"/>
					</linearGradient>
					<path class="st33" d="M904.6,1145.7l-8.1-25.3c-1.1-3.5,2.8-6.4,5.6-4.1c7,5.7,4.6,19.1,34.2-33.4c11.8-20.9,4.7,26.9-1.9,40.3
						c-4.5,9.1-4.1,14-8.1,16.9C920,1145,911.8,1149.6,904.6,1145.7z"/>
					
						<linearGradient id="SVGID_32_" gradientUnits="userSpaceOnUse" x1="-729.3956" y1="1635.8678" x2="-458.3039" y2="1635.8678" gradientTransform="matrix(-1 0 0 1 -115.3658 0)">
						<stop  offset="0" style="stop-color:#FF9085"/>
						<stop  offset="1" style="stop-color:#FB6FBB"/>
					</linearGradient>
					<path class="st34" d="M612.4,1668.3c12,25.6-43.3,86.6-105.3,116.3c-12.7,6.1-104.4,50.1-145.6,10.2
						c-34.2-33.1-12.1-103.2-4.2-128.2c38.6-122.3,155.8-184.1,204.4-206.2c36.1,91,14.9,131.7,6.5,144.4
						c-8.8,13.3-33.3,41.4-59.4,66.2c-18.4,17.5-29.9,26.1-28.4,28.8c1.9,3.3,23.5-3.3,106.9-45
						C596.9,1656.2,608.3,1659.6,612.4,1668.3z"/>
					<g>
						<path class="st3" d="M814.1,1517.3l-143.9,14c-3,0.3-5.6,2.5-6.4,5.4l-54.4,192.8c-1.4,5.1,2.6,10,7.8,9.5l146-15.2
							c3-0.3,5.6-2.5,6.4-5.5l52.2-191.5C823.2,1521.7,819.2,1516.8,814.1,1517.3z"/>
						
							<linearGradient id="SVGID_33_" gradientUnits="userSpaceOnUse" x1="-915.8103" y1="2019.9091" x2="-894.7784" y2="1835.295" gradientTransform="matrix(-1 0 0 1 -115.3658 0)">
							<stop  offset="0" style="stop-color:#AA80F9"/>
							<stop  offset="0.9964" style="stop-color:#6165D7"/>
						</linearGradient>
						<path class="st35" d="M718.7,1682.9c5.4-30.3-11.3-53.6,4.7-82.1c16.5-29.2,45.4-24.5,66.1-48.5c6.6-7.6,12.5-18.4,15.4-34.2
							l9.3-0.9c5.1-0.5,9.1,4.4,7.7,9.4l-52.2,191.5c-0.8,3-3.4,5.2-6.4,5.5l-73.8,7.7C708.3,1714,716.1,1697.4,718.7,1682.9z"/>
					</g>
					<linearGradient id="SVGID_34_" gradientUnits="userSpaceOnUse" x1="591.241" y1="1639.3751" x2="671.4298" y2="1639.3751">
						<stop  offset="0" style="stop-color:#311944"/>
						<stop  offset="1" style="stop-color:#A03976"/>
					</linearGradient>
					<path class="st36" d="M591.5,1662.5c0,0,50.3-52.5,70.7-60.3c20.3-7.8,2.3,47.1-9.6,54.9c-12,7.9-16.6,10.9-26,12.1
						c-9.4,1.3-9.4,1.3-9.4,1.3l-12.3,6.8C605,1677.3,589.1,1675.6,591.5,1662.5z"/>
				</g>
			</g>
			<g>
				<defs>
					<path id="SVGID_35_" d="M2947.2,1597H1787.5l106.5,638.5l330.5-20l58.3,141.5c31.6,81.6,104.4,135,188.2,129.1
						c82.8-5.9,153.1-68.1,183.3-151.7l249.2-15.1L2947.2,1597z"/>
				</defs>
				<clipPath id="SVGID_36_">
					<use xlink:href="#SVGID_35_"  style="overflow:visible;"/>
				</clipPath>
				<g class="st37">
					<g>
						<linearGradient id="SVGID_37_" gradientUnits="userSpaceOnUse" x1="1971.2593" y1="2115.6338" x2="1940.632" y2="2400.2886">
							<stop  offset="0" style="stop-color:#FFC444"/>
							<stop  offset="0.9964" style="stop-color:#F36F56"/>
						</linearGradient>
						<path class="st38" d="M2023.3,1759.5c0,0,28.1-38.3,25.2-47.8c-2.9-9.5-44.7-21.1-54.4-41.3c-9.8-20.2-13.7,2.2,0,21.3
							c13.6,19.1,13.6,19.1,13.6,19.1l16.5,8.9l-18.5,24.6L2023.3,1759.5z"/>
						
							<linearGradient id="SVGID_38_" gradientUnits="userSpaceOnUse" x1="2840.2864" y1="-600.6393" x2="3165.0996" y2="-1351.1556" gradientTransform="matrix(0.6817 -0.7316 -0.7316 -0.6817 -505.6033 3548.5254)">
							<stop  offset="0" style="stop-color:#FF9085"/>
							<stop  offset="1" style="stop-color:#FB6FBB"/>
						</linearGradient>
						<path class="st39" d="M2042.4,1755.6c-13.8-15.4-27.1-21.4-39.2-22.2c-54.1-3.4-119.7,96.4-124.2,187.8
							c-0.3,6.6-4.1,108.8,70.9,171.1c108.2,89.9,301.8,31.9,334.2-50.3c10.6-27,7.7-65.9,7.1-72.7c-3.3-43.5-19.5-75-29.2-90.9
							c-83,28.6-187.1,48-219.1,6.1C2018.9,1853,2008.9,1806.2,2042.4,1755.6z"/>
						
							<linearGradient id="SVGID_39_" gradientUnits="userSpaceOnUse" x1="-7669.9673" y1="2620.7327" x2="-7342.6753" y2="1864.4883" gradientTransform="matrix(-0.9994 3.530000e-02 3.530000e-02 0.9994 -5166.0664 63.2228)">
							<stop  offset="0" style="stop-color:#FF9085"/>
							<stop  offset="1" style="stop-color:#FB6FBB"/>
						</linearGradient>
						<path class="st40" d="M2709.8,1867.7c-66.1-18.8-167.8-37.9-293-23.3c-73.5,8.6-137,26.6-187.5,45.3
							c-7,28.8-15.2,71.1-17.2,122.4c-8.7,226.7,112.5,409.6,103.5,414c-6.6,3.2-52-105.9-73.2-99.9
							c-24.6,6.9-20.3,168.4,44.1,200.3c18.8,9.4,25.2,7.4,118.6-13.4c62-13.8,88-17.9,119.5-10.4c42.7,10.2,62.8,18.8,79.8,8.5
							c16.3-9.9,17.5-40.6,18-93.9c0.7-82.3-1.1-137.9-1.4-157.9c-1.3-91.6,18.3-163.5,43.4-255.2
							C2680,1946.9,2696.9,1900.4,2709.8,1867.7z"/>
						<g>
							
								<linearGradient id="SVGID_40_" gradientUnits="userSpaceOnUse" x1="-5887.8018" y1="5530.4937" x2="-5879.2866" y2="5303.6812" gradientTransform="matrix(-0.8781 0.4784 0.4784 0.8781 -5343.4131 -113.645)">
								<stop  offset="0" style="stop-color:#FFC444"/>
								<stop  offset="0.9964" style="stop-color:#F36F56"/>
							</linearGradient>
							<path class="st41" d="M2422.5,1751.8c1.7,23.3,5.6,41.4,9,53.7c3.8,14.1,6,17.6,8.7,20.3c4.1,4.1,9.9,7.2,42.1,11.3
								c17.4,2.3,19.6,1.9,20.1,3.6c2.5,8.5-41.7,44.4-90.7,43.6c-30.2-0.5-58.8-14.8-57.9-24.4c0.9-9.7,31.2-8.5,38.7-26.7
								c5.2-12.7-3.1-28.6-12.4-41.6C2386.8,1775.1,2415.9,1768.4,2422.5,1751.8z"/>
							<g>
								
									<linearGradient id="SVGID_41_" gradientUnits="userSpaceOnUse" x1="8666.4824" y1="3475.0874" x2="8608.8154" y2="3328.6233" gradientTransform="matrix(0.9495 -0.3138 0.3138 0.9495 -6842.4497 1267.5063)">
									<stop  offset="0" style="stop-color:#311944"/>
									<stop  offset="1" style="stop-color:#A03976"/>
								</linearGradient>
								<path class="st42" d="M2362.8,1775c-9.7-6.7-15.3-22.8-10.8-36c3.9-11.4,14-16.6,20-19.8c17.5-9.1,42.9-9.8,56.3,4.5
									c7.9,8.5,4.5,33.8,4.2,38.2c-0.4,5-3.2,7.8-5.2,12.2c-2.8,6.2-7,15.9-13.9,32.2c-2-3.3-4.6-7.2-8.2-11.2
									c-1.4-1.6-6.8-7.6-13.4-11.8C2378.6,1775,2372,1781.4,2362.8,1775z"/>
								
									<linearGradient id="SVGID_42_" gradientUnits="userSpaceOnUse" x1="-7297.6641" y1="2878.4497" x2="-7300.3755" y2="3096.9031" gradientTransform="matrix(-0.9669 0.2551 0.2551 0.9669 -5395.3232 842.1304)">
									<stop  offset="0" style="stop-color:#FFC444"/>
									<stop  offset="0.9964" style="stop-color:#F36F56"/>
								</linearGradient>
								<path class="st43" d="M2425.5,1790.3c0,0-5.5,24.9-29.7,32.5c-21.8,6.8-40.7-41.8-30.4-57.5c3.4-5.3,12.1-10.2,20.1-10.9
									c4.8-0.4,6.8,0.9,14.6,0.1c7.2-0.7,8.8-2.2,11.3-1.2c3.2,1.2,6.7,5.9,7.1,22c2.7-5.8,7-9.3,11-8.9c0.6,0.1,2.4,0.5,3.7,1.8
									C2438.1,1772.6,2435.5,1781.7,2425.5,1790.3z"/>
								
									<linearGradient id="SVGID_43_" gradientUnits="userSpaceOnUse" x1="8648.8271" y1="3484.5793" x2="8589.3887" y2="3333.616" gradientTransform="matrix(0.9495 -0.3138 0.3138 0.9495 -6842.4497 1267.5063)">
									<stop  offset="0" style="stop-color:#311944"/>
									<stop  offset="1" style="stop-color:#A03976"/>
								</linearGradient>
								<path class="st44" d="M2411.6,1749.9c-0.8,1.2,3.6,4,5.6,9.5c3.9,10.8-2.5,28-13,33.2c-6.2,3.1-9.2-0.2-20.2,2.7
									c-6.8,1.8-12,4.8-15.2,6.9c0.5,13.3,7.4,24.1,16.9,26.6c10.2,2.8,19.6-5,23.6-8.2c2.6-2.2,11.1-9,13.2-20
									c2.2-11.4-4.7-15.2-0.8-23.8c2-4.4,5.4-7.3,7.3-15c0.5-2.1,0.7-3.9,0.8-5C2422.3,1753,2412.7,1748.2,2411.6,1749.9z"/>
								
									<linearGradient id="SVGID_44_" gradientUnits="userSpaceOnUse" x1="8591.5938" y1="3395.7395" x2="8594.4688" y2="3421.3691" gradientTransform="matrix(0.9495 -0.3138 0.3138 0.9495 -6842.4497 1267.5063)">
									<stop  offset="0" style="stop-color:#FFC444"/>
									<stop  offset="1" style="stop-color:#F36F56"/>
								</linearGradient>
								<path class="st45" d="M2377.9,1803.7c0,0,5.4,0.7,13.2-2.8c0.4-0.2,0.8-0.2,1,0c0.4,0.7-3.6,6.2-8.7,6.6
									c-3.6,0.3-7.3-2-7.1-3C2376.3,1804.1,2377.1,1803.9,2377.9,1803.7z"/>
							</g>
						</g>
						
							<linearGradient id="SVGID_45_" gradientUnits="userSpaceOnUse" x1="-7611.8315" y1="2643.127" x2="-7275.8301" y2="1866.759" gradientTransform="matrix(-0.9994 3.530000e-02 3.530000e-02 0.9994 -5166.0664 63.2228)">
							<stop  offset="0" style="stop-color:#FF9085"/>
							<stop  offset="1" style="stop-color:#FB6FBB"/>
						</linearGradient>
						<path class="st46" d="M2321.7,2473.7c45.5-25.9,44-68.4,86.4-90.9c60-31.8,128.2,19.3,138.1,2c10.2-18-70.6-61.1-61.5-113.3
							c7.2-41.4,62.8-39.7,90.6-97.9c26.3-55-2.1-100.9,22.1-121.3c8.6-7.3,24.1-11.2,53.9,0c-18.5,70.2-31.5,132-30.4,206.9
							c0.3,20,2.1,75.6,1.4,157.9c-0.5,53.3-1.7,84-18,93.9c-17.1,10.3-37.1,1.6-79.8-8.5c-31.5-7.5-57.6-16-119.6-2.2
							c-93.4,20.7-99.6,35.4-118.5,26.1c-12.3-6.1-18.4-16.8-22.9-38.1C2282.7,2488.3,2302.7,2484.5,2321.7,2473.7z"/>
						<linearGradient id="SVGID_46_" gradientUnits="userSpaceOnUse" x1="2624.5132" y1="2229.8394" x2="2590.4133" y2="2546.7683">
							<stop  offset="0" style="stop-color:#FFC444"/>
							<stop  offset="0.9964" style="stop-color:#F36F56"/>
						</linearGradient>
						<path class="st47" d="M2660.6,2255.4l-21.8,0.9c0,0-24.5-18.9-35.4-16.5c-10.9,2.4-27,12.2-28.9,14.1
							c-1.9,1.9,6.3,10.6,14.3,8.8c7.9-1.7,25.8,1,29.2,8.2c3.4,7.1,17.3,10.2,19.5,5.6l29.4,3.2L2660.6,2255.4z"/>
						
							<linearGradient id="SVGID_47_" gradientUnits="userSpaceOnUse" x1="-7916.4214" y1="2491.7966" x2="-7590.3208" y2="1738.3057" gradientTransform="matrix(-0.9994 3.530000e-02 3.530000e-02 0.9994 -5166.0664 63.2228)">
							<stop  offset="0" style="stop-color:#FF9085"/>
							<stop  offset="1" style="stop-color:#FB6FBB"/>
						</linearGradient>
						<path class="st48" d="M2653.8,2247.9c-1,19.2,3.3,31.8,10,39.9c29.7,36.2,125.7,10,180.9-48c40.6-42.7,60.9-104.4,58.6-157.7
							c-4.5-104-96.8-199.2-232.7-224.6c-18.3,66.2-36.7,132.5-55.1,199c84.1-6.1,120.5,55.1,114.3,104
							C2725.2,2197.1,2703.5,2234.9,2653.8,2247.9z"/>
					</g>
				</g>
			</g>
			<g>
				<defs>
					<path id="SVGID_48_" d="M2882.1,757.5l-703.4-23.3l56.9,653.7l69.2,0.5c26.2,95.7,104.4,164.8,195.6,164.5
						c90.1-0.4,165.4-68.4,190.3-161.5l138.5,19.1L2882.1,757.5z"/>
				</defs>
				<clipPath id="SVGID_49_">
					<use xlink:href="#SVGID_48_"  style="overflow:visible;"/>
				</clipPath>
				<g class="st49">
					<g>
						
							<linearGradient id="SVGID_50_" gradientUnits="userSpaceOnUse" x1="6400.6851" y1="1043.4521" x2="6070.1489" y2="736.955" gradientTransform="matrix(0.9977 6.710000e-02 -6.710000e-02 0.9977 -3712.5464 -71.3376)">
							<stop  offset="0" style="stop-color:#AA80F9"/>
							<stop  offset="0.9964" style="stop-color:#6165D7"/>
						</linearGradient>
						<path class="st50" d="M2452.2,954c-34.5,9.3-78.8,48.8-102.1,70.6c-54,50.5-156.3,224.6-96.5,288.5
							c40.4,43.2,110.9,25.9,141.8-16.5c22.7-31.1,8.9-59.9,4.2-116.7C2394.4,1118.8,2416.2,1012.9,2452.2,954z"/>
						
							<linearGradient id="SVGID_51_" gradientUnits="userSpaceOnUse" x1="6399.8638" y1="1313.5736" x2="6180.2646" y2="643.3179" gradientTransform="matrix(0.9977 6.710000e-02 -6.710000e-02 0.9977 -3712.5464 -71.3376)">
							<stop  offset="0" style="stop-color:#AA80F9"/>
							<stop  offset="0.9964" style="stop-color:#6165D7"/>
						</linearGradient>
						<path class="st51" d="M2423.2,969.7c-23.8,27.7-32.2,25-50.9,63.7c-28.2,58.4-7.4,126.6-4.5,199.6
							c3.2,80,0.1,228.8-40.2,305.8c-0.7,1.3-1,1.6-1,3.6c1.2,81.7,378.6,22.9,378-6.3c-2.9-144.8-95.6-464.3-72.5-569
							c-10.5-0.5-31.2-12.4-39.7-15.1c-36.4-11.6-69.4-14.5-104.1-11c-12.7,1.3-19.2,4-28.5,7.3
							C2444.7,953.7,2434.9,962.1,2423.2,969.7z"/>
						<g>
							
								<linearGradient id="SVGID_52_" gradientUnits="userSpaceOnUse" x1="-5005.4634" y1="912.9818" x2="-4943.1504" y2="912.9818" gradientTransform="matrix(-1 0 0 1 -2436.8247 0)">
								<stop  offset="0" style="stop-color:#FCB148"/>
								<stop  offset="5.207239e-02" style="stop-color:#FDBA46"/>
								<stop  offset="0.1424" style="stop-color:#FFC244"/>
								<stop  offset="0.3183" style="stop-color:#FFC444"/>
								<stop  offset="0.4849" style="stop-color:#FDB946"/>
								<stop  offset="0.7754" style="stop-color:#F99C4D"/>
								<stop  offset="0.8658" style="stop-color:#F8924F"/>
								<stop  offset="1" style="stop-color:#F8924F"/>
							</linearGradient>
							<path class="st52" d="M2557.9,862.9c-0.5,24.5,7.4,60.1,10.6,82.2c3.1,22.1-41.3,21.5-55.8,10.8c-13.4-9.9-3.3-35,9.6-47.9
								C2535.1,895.2,2544.8,876,2557.9,862.9z"/>
							<g>
								
									<linearGradient id="SVGID_53_" gradientUnits="userSpaceOnUse" x1="6070.5176" y1="751.9572" x2="6169.7236" y2="1042.0591" gradientTransform="matrix(1 0 0 1 -3561.5725 0)">
									<stop  offset="0" style="stop-color:#444B8C"/>
									<stop  offset="0.9964" style="stop-color:#26264F"/>
								</linearGradient>
								<path class="st53" d="M2490.9,852.5c-20.6-19.2-24.4-84.7-3.5-96.5c10.1-5.7,27.8,27.2,39.2,33.9c15.3,9,56.8,20,65,37
									c6.2,12.8-6.2,38.2-11.2,47.3c-5.6,10.3-6.3,6.7-13.1,13.9c-9.4,10-22,21.6-31.6,32.9c-2.1-8.9-1.5-8.9-5.2-20.4
									c-1.4-4.4-12.7-23.5-18.3-30.8C2508.8,865,2493.5,854.8,2490.9,852.5z"/>
								
									<linearGradient id="SVGID_54_" gradientUnits="userSpaceOnUse" x1="-4967.9844" y1="837.6614" x2="-4958.75" y2="1075.2457" gradientTransform="matrix(-1 0 0 1 -2436.8247 0)">
									<stop  offset="0" style="stop-color:#FCB148"/>
									<stop  offset="5.207239e-02" style="stop-color:#FDBA46"/>
									<stop  offset="0.1424" style="stop-color:#FFC244"/>
									<stop  offset="0.3183" style="stop-color:#FFC444"/>
									<stop  offset="0.4849" style="stop-color:#FDB946"/>
									<stop  offset="0.7754" style="stop-color:#F99C4D"/>
									<stop  offset="0.8658" style="stop-color:#F8924F"/>
									<stop  offset="1" style="stop-color:#F8924F"/>
								</linearGradient>
								<path class="st54" d="M2556.8,905.6c-15.7,14.2-23.4,31.8-52.1,25.4c-25.7-5.8-30.1-70.9-6.6-89.1
									c7.8-6.1,19.2-5.5,28.8-2.2c5.7,2,11.7,6,17.3,8.5c5.2,2.3,9.7,0,14.5,5.5c6,7,1.9,24-1.5,32.2c2.6-2.2,5.6-5.4,9.1-6.4
									c2.4-0.7,6.7-4.6,9-1c3.7,5.9-4.4,16.7-9.1,21C2563.9,901.7,2559.4,904.1,2556.8,905.6z"/>
								
									<linearGradient id="SVGID_55_" gradientUnits="userSpaceOnUse" x1="6047.5015" y1="764.5623" x2="6144.0142" y2="1046.7886" gradientTransform="matrix(1 0 0 1 -3561.5725 0)">
									<stop  offset="0" style="stop-color:#444B8C"/>
									<stop  offset="0.9964" style="stop-color:#26264F"/>
								</linearGradient>
								<path class="st55" d="M2560.5,849.7c-3.5,1.9,2.7,8.7,1.8,15.1c-1.8,12.5-5.8,35-23.9,36.6c-10.7,0.9-22-9.2-33.3-10.8
									c-7-1-14.7-0.9-21.7,0.7c-4.5,13.4-4.7,34.8,7,43.7c12.6,9.5,20.8,5.1,34.1,1.7c8.9-2.3,18.7-9.7,24.3-18.3
									c5.8-9,10.1-18.5,15.8-27.9c3.2-5.2,7-11.7,10.8-17.2c1-1.5,2.6-3.8,3.3-5.8C2575.7,864.4,2565.6,847,2560.5,849.7z"/>
								<path class="st3" d="M2497.7,901.2c5.3,3.2,11.5,3.4,17.3,3.7c0.3,0,1.5-0.4,1,0.6c-1.8,3.9-9.6,5-13.6,3.7
									c-2.8-0.9-7.6-4.6-7.1-7.7C2495.6,900.2,2497.1,901.4,2497.7,901.2z"/>
							</g>
						</g>
						
							<linearGradient id="SVGID_56_" gradientUnits="userSpaceOnUse" x1="6240.0264" y1="1463.4796" x2="6022.3452" y2="799.0785" gradientTransform="matrix(0.9992 4.090000e-02 -4.090000e-02 0.9992 -3614.5337 -39.9982)">
							<stop  offset="0" style="stop-color:#AA80F9"/>
							<stop  offset="0.9964" style="stop-color:#6165D7"/>
						</linearGradient>
						<path class="st56" d="M2456.6,1439.7c-10.2-11.7-26.5-30.2-27.5-56.1c-2.5-66.4,99-91,95-144.7
							c-3.1-41.8-65.1-38.3-100.6-113.5c-6.1-13-28.5-62.2-12.3-117c6.5-21.8,17.1-37.7,25.1-47.7c-4.4,3-8.6,6-13.2,9
							c-23.8,27.7-32.2,25-50.9,63.7c-28.2,58.4-7.4,126.6-4.5,199.6c3.2,80,0.1,228.8-40.2,305.8c-0.7,1.3-1.2,2.2-1,3.6
							c9,81.2,378.6,22.9,378-6.3c-0.4-17.5-2-37.4-4.6-59.2C2687.2,1480.5,2529.4,1522.7,2456.6,1439.7z"/>
						
							<linearGradient id="SVGID_57_" gradientUnits="userSpaceOnUse" x1="6365.3071" y1="1051.1516" x2="6059.0469" y2="767.1652" gradientTransform="matrix(0.9977 6.710000e-02 -6.710000e-02 0.9977 -3712.5464 -71.3376)">
							<stop  offset="0" style="stop-color:#AA80F9"/>
							<stop  offset="0.9964" style="stop-color:#6165D7"/>
						</linearGradient>
						<path class="st57" d="M2349.1,1183c-21.1-1.5-6.5-13.9-12.9-12.2c-4,1.1-102.6,96-71.4,147.5c29.7,48.9,151.7,17.2,194.3,2.4
							c23.6-8.2,93.1-33.5,135-100.6c3.8-6,6.6-11.2,8.4-14.8c-91.9-14-136.2-17.8-159.6-18.4
							C2427.9,1186.5,2412.7,1187.4,2349.1,1183z"/>
						
							<linearGradient id="SVGID_58_" gradientUnits="userSpaceOnUse" x1="6362.4048" y1="1330.5564" x2="6387.043" y2="568.6756" gradientTransform="matrix(0.9977 6.710000e-02 -6.710000e-02 0.9977 -3712.5464 -71.3376)">
							<stop  offset="0" style="stop-color:#AA80F9"/>
							<stop  offset="0.9964" style="stop-color:#6165D7"/>
						</linearGradient>
						<path class="st58" d="M2384.6,1173.9c2.6,21.3,13.6,86.9,68.4,141.1c10.9,10.7,84.1,80.8,185.7,64.1
							c78.5-12.9,147.7-73.3,163.6-149.2c31-147.8-154.8-285.1-198.1-263.9c-29.2,14.3-37.6,123.2,6.2,179.3
							c9.5,12.2,27,29.1,24.3,49.8c-2.6,19.9-22.5,32.2-33.8,38.9c-53.4,32-171.7-55.2-203.3-62.9
							C2395.4,1171.1,2393.7,1168.9,2384.6,1173.9z"/>
						
							<linearGradient id="SVGID_59_" gradientUnits="userSpaceOnUse" x1="6194.2793" y1="1195.7925" x2="6204.813" y2="870.0708" gradientTransform="matrix(0.9992 4.090000e-02 -4.090000e-02 0.9992 -3614.5337 -39.9982)">
							<stop  offset="0" style="stop-color:#AA80F9"/>
							<stop  offset="0.9964" style="stop-color:#6165D7"/>
						</linearGradient>
						<path class="st59" d="M2670.2,1145.9c-18.2-19.3-39.4-29.7-63.3-37.8c-6-1.8-12-3.5-17.9-5.2c4.9,15.6,11.9,30.2,21.4,42.3
							c9.5,12.2,27,29.1,24.3,49.8c-2.6,19.9-22.5,32.2-33.8,38.9c-53.4,32-171.7-55.2-203.3-62.9c-2.3-0.1-4-2.3-13.1,2.7
							c0.7,5.3,1.8,13.5,4.1,23.5c44.8-13.6,93.2,32.4,131.5,55c49,28.8,109.5,47.7,156.6,11.5
							C2712,1237.5,2699.3,1177.5,2670.2,1145.9z"/>
						
							<linearGradient id="SVGID_60_" gradientUnits="userSpaceOnUse" x1="6388.3809" y1="1348.8417" x2="6407.6572" y2="752.7679" gradientTransform="matrix(0.9992 4.090000e-02 -4.090000e-02 0.9992 -3614.5337 -39.9982)">
							<stop  offset="0" style="stop-color:#AA80F9"/>
							<stop  offset="0.9964" style="stop-color:#6165D7"/>
						</linearGradient>
						<path class="st60" d="M2693.3,1000.5c-8.2,28-9.2,56.5,7.2,84.2c23.6,38.9,49.9,71.5,59.5,114.5c8.6,36.5,3.4,72.1-6.8,107.5
							c-3,9.4-7.5,17.6-13.1,24.9c31.1-26.6,54-62,62.3-101.7C2821.9,1136.8,2755.9,1048.4,2693.3,1000.5z"/>
						
							<linearGradient id="SVGID_61_" gradientUnits="userSpaceOnUse" x1="-5094.77" y1="1215.0194" x2="-5030.8496" y2="1215.0194" gradientTransform="matrix(-1 0 0 1 -2436.8247 0)">
							<stop  offset="0" style="stop-color:#FCB148"/>
							<stop  offset="5.207239e-02" style="stop-color:#FDBA46"/>
							<stop  offset="0.1424" style="stop-color:#FFC244"/>
							<stop  offset="0.3183" style="stop-color:#FFC444"/>
							<stop  offset="0.4849" style="stop-color:#FDB946"/>
							<stop  offset="0.7754" style="stop-color:#F99C4D"/>
							<stop  offset="0.8658" style="stop-color:#F8924F"/>
							<stop  offset="1" style="stop-color:#F8924F"/>
						</linearGradient>
						<path class="st61" d="M2594,1220c2.5,6.2,15,12.7,21.1,12.1c10.1-1,17.3-7.9,23.7-10.9c5.7-2.6,18.3-6.1,19.1-10.7
							c1.4-8.7-12.4-11.4-20.5-12.4c-11.4-1.4-23.5,1.8-34.9,7C2599.6,1210.2,2596.5,1215.1,2594,1220z"/>
						
							<linearGradient id="SVGID_62_" gradientUnits="userSpaceOnUse" x1="-4854.3555" y1="1178.0824" x2="-4802.627" y2="1178.0824" gradientTransform="matrix(-1 0 0 1 -2436.8247 0)">
							<stop  offset="0" style="stop-color:#FCB148"/>
							<stop  offset="5.207239e-02" style="stop-color:#FDBA46"/>
							<stop  offset="0.1424" style="stop-color:#FFC244"/>
							<stop  offset="0.3183" style="stop-color:#FFC444"/>
							<stop  offset="0.4849" style="stop-color:#FDB946"/>
							<stop  offset="0.7754" style="stop-color:#F99C4D"/>
							<stop  offset="0.8658" style="stop-color:#F8924F"/>
							<stop  offset="1" style="stop-color:#F8924F"/>
						</linearGradient>
						<path class="st62" d="M2365.8,1184.1c41,6.6,50.5,3.9,51.6,0.3c1.4-4.6-9.6-14.2-21.4-16
							C2384.1,1166.5,2371.9,1172.7,2365.8,1184.1z"/>
					</g>
					<g>
						
							<linearGradient id="SVGID_63_" gradientUnits="userSpaceOnUse" x1="8672.2275" y1="990.5486" x2="8677.9014" y2="1073.6804" gradientTransform="matrix(0.9999 1.300000e-02 -1.300000e-02 0.9999 -6126.731 -191.3752)">
							<stop  offset="0" style="stop-color:#444B8C"/>
							<stop  offset="0.9964" style="stop-color:#26264F"/>
						</linearGradient>
						<path class="st63" d="M2522.8,960.7c1.4,3.3,3,6.8,4.9,10.3c0.8,1.5,1.6,3,2.4,4.5c3.3,0.6,6.6,1.1,9.8,1.7
							c2.1-4.8,4.2-9.5,6.3-14.3c-3.3,0.3-7.3,0.5-11.8,0C2529.9,962.5,2526,961.6,2522.8,960.7z"/>
						
							<linearGradient id="SVGID_64_" gradientUnits="userSpaceOnUse" x1="8656.7305" y1="1160.4633" x2="8656.7305" y2="964.9913" gradientTransform="matrix(0.9999 1.300000e-02 -1.300000e-02 0.9999 -6126.731 -191.3752)">
							<stop  offset="0" style="stop-color:#444B8C"/>
							<stop  offset="0.9964" style="stop-color:#26264F"/>
						</linearGradient>
						<path class="st64" d="M2530.2,974.6c0,0-11.3,111.6-46.2,128.2c0.8,3.6-0.4,32.8-0.4,32.8s32.5-8.7,34.3-7.9
							c1.8,0.7,39.8-60.2,22.1-150.5L2530.2,974.6z"/>
					</g>
				</g>
			</g>
		</g>
		<g>
			<linearGradient id="SVGID_65_" gradientUnits="userSpaceOnUse" x1="1382.2625" y1="1383.3287" x2="3812.4329" y2="-1737.7668">
				<stop  offset="0" style="stop-color:#AB316D"/>
				<stop  offset="1" style="stop-color:#792D3D"/>
			</linearGradient>
			<path class="st65" d="M2254.8,325.9l-562.8-34.5c-41.3-2.1-75,30.2-75,72.2v525.8c0,42,33.7,76.4,75,76.8l31.3,0.3v129.5
				c0,19.4,23,28.9,42,7.4L1883,967.9l371.8,1.1c34.8,0.3,62.8-30.4,62.8-68.7V398.5C2317.6,360.2,2289.6,327.7,2254.8,325.9z"/>
			<linearGradient id="SVGID_66_" gradientUnits="userSpaceOnUse" x1="1612.7241" y1="1096.5447" x2="2052.9155" y2="531.2019">
				<stop  offset="0" style="stop-color:#FCB148"/>
				<stop  offset="5.207239e-02" style="stop-color:#FDBA46"/>
				<stop  offset="0.1424" style="stop-color:#FFC244"/>
				<stop  offset="0.3183" style="stop-color:#FFC444"/>
				<stop  offset="0.4849" style="stop-color:#FDB946"/>
				<stop  offset="0.7754" style="stop-color:#F99C4D"/>
				<stop  offset="0.8658" style="stop-color:#F8924F"/>
				<stop  offset="1" style="stop-color:#F8924F"/>
			</linearGradient>
			<path class="st66" d="M2272.6,955.4l-562.8-2.9c-41.3-0.4-75-34.8-75-76.8V349.9c0-42,33.7-74.3,75-72.2l562.8,34.5
				c34.8,1.8,62.8,34.3,62.8,72.5v501.9C2335.5,924.9,2307.4,955.7,2272.6,955.4z"/>
			<linearGradient id="SVGID_67_" gradientUnits="userSpaceOnUse" x1="2092.7551" y1="899.7223" x2="1807.8063" y2="174.9612">
				<stop  offset="0" style="stop-color:#FCB148"/>
				<stop  offset="5.207239e-02" style="stop-color:#FDBA46"/>
				<stop  offset="0.1424" style="stop-color:#FFC244"/>
				<stop  offset="0.3183" style="stop-color:#FFC444"/>
				<stop  offset="0.4849" style="stop-color:#FDB946"/>
				<stop  offset="0.7754" style="stop-color:#F99C4D"/>
				<stop  offset="0.8658" style="stop-color:#F8924F"/>
				<stop  offset="1" style="stop-color:#F8924F"/>
			</linearGradient>
			<path class="st67" d="M1656.2,889.8V337c0-22.4,17.9-39.6,39.9-38.5l588,34c18.5,0.9,33.5,18.2,33.5,38.7V899
				c0,20.4-15,36.8-33.5,36.6l-588-4.9C1674.1,930.5,1656.2,912.2,1656.2,889.8z"/>
			<linearGradient id="SVGID_68_" gradientUnits="userSpaceOnUse" x1="1650.8412" y1="1160.1842" x2="2267.7937" y2="367.8249">
				<stop  offset="0" style="stop-color:#FCB148"/>
				<stop  offset="5.207239e-02" style="stop-color:#FDBA46"/>
				<stop  offset="0.1424" style="stop-color:#FFC244"/>
				<stop  offset="0.3183" style="stop-color:#FFC444"/>
				<stop  offset="0.4849" style="stop-color:#FDB946"/>
				<stop  offset="0.7754" style="stop-color:#F99C4D"/>
				<stop  offset="0.8658" style="stop-color:#F8924F"/>
				<stop  offset="1" style="stop-color:#F8924F"/>
			</linearGradient>
			<path class="st68" d="M1741.1,1082.2V926.1l182.5,2l-146.3,168.1C1764.7,1110.7,1741.1,1101.6,1741.1,1082.2z"/>
		</g>
		<g>
			<g>
				<path class="st3" d="M1891,623.6c0,23.5-19.7,42-44.2,41.5c-24.5-0.5-44.5-20.1-44.5-43.8c0-23.6,20-42.2,44.5-41.5
					C1871.3,580.6,1891,600.1,1891,623.6z"/>
				<path class="st3" d="M2039.8,627.4c0,23.2-19.3,41.6-43.1,41c-24-0.5-43.4-19.9-43.4-43.2c0-23.3,19.5-41.7,43.4-41
					C2020.5,584.9,2039.8,604.2,2039.8,627.4z"/>
				<path class="st3" d="M2185.1,631.1c0,22.9-18.8,41.1-42.2,40.6c-23.4-0.5-42.4-19.7-42.4-42.7c0-23.1,19-41.2,42.4-40.6
					C2166.3,589.1,2185.1,608.2,2185.1,631.1z"/>
			</g>
		</g>
		<g class="st69">
			
				<linearGradient id="SVGID_69_" gradientUnits="userSpaceOnUse" x1="2320.4028" y1="418.3603" x2="2161.4333" y2="736.2988" gradientTransform="matrix(0.9909 1.760000e-02 0 1 7.5536 -14.8669)">
				<stop  offset="0" style="stop-color:#FF9085"/>
				<stop  offset="1" style="stop-color:#FB6FBB"/>
			</linearGradient>
			<path class="st70" d="M2724.9,419.8l-850.5-31.7c-19.9-0.7-36,14.6-36,34.3v42.7c0,19.7,16.1,36.2,36,36.8l850.5,29.5
				c19.1,0.7,34.6-14.4,34.6-33.7V456C2759.5,436.7,2744,420.6,2724.9,419.8z"/>
			<polygon class="st3" points="2733.8,508.8 1962.2,481.7 1962.2,414.7 2733.8,443.1 			"/>
			<path class="st3" d="M1923.2,416.9c-9.8-12.9-28.1-15.9-40.8-6.6c-12.7,9.3-15,27.3-5.2,40.2c9.1,11.9,25.4,15.3,37.8,8.4
				l21.3,28c1.2,1.6,3.5,2,5,0.8c1.6-1.1,1.8-3.4,0.6-5l-21.3-28C1931,445.1,1932.3,428.8,1923.2,416.9z M1915.6,453.8
				c-10.9,8-26.6,5.5-35.1-5.6c-8.5-11.1-6.5-26.6,4.4-34.6c10.9-8,26.6-5.4,35.1,5.7C1928.5,430.3,1926.5,445.8,1915.6,453.8z"/>
		</g>
	</g>
</g>
</svg>
